<svg xmlns="http://www.w3.org/2000/svg" width="86" height="86" viewBox="0 0 86 86"><g transform="translate(-364.938 -46)"><circle cx="43" cy="43" r="43" transform="translate(364.938 46)" fill="#fff0bc"/><path d="M437.966,111l-14.694-9.667-6.667,5.333L404.271,100,392.938,87.667l-2.667-7,5.667-6.333-10.333-16-14.333,7L376.6,84l16.333,22.667L418.6,123l12.333,3Z" fill="#fff0bc"/><path d="M391.965,101.937c17.087,17.087,33.4,20.7,39.428,21.029a44.09,44.09,0,0,0,6.572-14.457,54.714,54.714,0,0,0-15.771-10.515l-6.572,6.572c-2.245-.6-8.4-3.15-15.771-10.515s-9.912-13.528-10.514-15.773l6.572-6.57a54.727,54.727,0,0,0-10.515-15.771,44.065,44.065,0,0,0-14.457,6.57C371.265,68.532,374.88,84.852,391.965,101.937Z" transform="translate(0 2.554)" fill="none" stroke="#b6510d" stroke-linecap="round" stroke-miterlimit="10" stroke-width="3"/><path d="M392,63a14.955,14.955,0,0,1,14.954,14.954" transform="translate(18.05 8.57)" fill="none" stroke="#b6510d" stroke-linecap="round" stroke-miterlimit="10" stroke-width="3"/><path d="M392,58a24.3,24.3,0,0,1,24.3,24.3" transform="translate(17.927 4.346)" fill="none" stroke="#b6510d" stroke-linecap="round" stroke-miterlimit="10" stroke-width="3"/><path d="M392,53a33.647,33.647,0,0,1,33.646,33.646" transform="translate(17.927)" fill="none" stroke="#b6510d" stroke-linecap="round" stroke-miterlimit="10" stroke-width="3"/></g></svg>