<svg xmlns="http://www.w3.org/2000/svg" width="86" height="86" viewBox="0 0 86 86"><circle cx="43" cy="43" r="43" fill="#fff0bc"/><g transform="translate(-1069 -8055)"><path d="M638.16,133.315a1.474,1.474,0,0,0-.048-.246,1.6,1.6,0,0,0-.1-.257,1.479,1.479,0,0,0-.056-.139.949.949,0,0,0-.066-.074,2.164,2.164,0,0,0-.38-.376c-.027-.019-.044-.046-.07-.061-.044-.027-.092-.033-.138-.055a1.62,1.62,0,0,0-.767-.159,1.4,1.4,0,0,0-.254.043,1.434,1.434,0,0,0-.161.027L567.189,155.67a1.579,1.579,0,0,0-.055,2.964l32.2,12.456,13.915,32.426a1.567,1.567,0,0,0,1.438.951c.027,0,.052,0,.078,0a1.567,1.567,0,0,0,1.414-1.1l21.933-69.383a1.193,1.193,0,0,0,.02-.15,1.505,1.505,0,0,0,.036-.263A1.59,1.59,0,0,0,638.16,133.315Z" transform="translate(509.872 7929.053)" fill="none" stroke="#b6510d" stroke-miterlimit="10" stroke-width="3"/><line x1="23.822" y2="23.822" transform="translate(1076.784 8108.914)" fill="none" stroke="#b6510d" stroke-linecap="round" stroke-miterlimit="10" stroke-width="3"/><line x1="13.181" y2="13.181" transform="translate(1093.692 8119.88)" fill="none" stroke="#b6510d" stroke-linecap="round" stroke-miterlimit="10" stroke-width="3"/><line x1="13.181" y2="13.181" transform="translate(1076.46 8102.505)" fill="none" stroke="#b6510d" stroke-linecap="round" stroke-miterlimit="10" stroke-width="3"/><line y1="37.238" x2="36.987" transform="translate(1109.21 8062.647)" fill="none" stroke="#b6510d" stroke-linecap="round" stroke-miterlimit="10" stroke-width="3"/></g></svg>