<svg xmlns="http://www.w3.org/2000/svg" width="193.335" height="180.44" viewBox="0 0 193.335 180.44"><g transform="translate(-20217 -3181.6)"><path d="M1085.286,6908.8a10.006,10.006,0,0,1-4.085-2.444l1.066-2.108a10.358,10.358,0,0,0,3.738,2.275,13.709,13.709,0,0,0,4.8.863,8.8,8.8,0,0,0,5.212-1.27,3.918,3.918,0,0,0,1.737-3.307,3.313,3.313,0,0,0-.947-2.48,6.45,6.45,0,0,0-2.312-1.427,36.684,36.684,0,0,0-3.81-1.089,40.426,40.426,0,0,1-4.661-1.427,7.611,7.611,0,0,1-2.971-2.084,5.545,5.545,0,0,1-1.234-3.811,6.533,6.533,0,0,1,1.03-3.57,7.1,7.1,0,0,1,3.175-2.563,13.065,13.065,0,0,1,5.32-.959,15.614,15.614,0,0,1,4.337.611,12.677,12.677,0,0,1,3.678,1.678l-.923,2.18a12.741,12.741,0,0,0-3.475-1.605,12.927,12.927,0,0,0-3.618-.538,8.42,8.42,0,0,0-5.116,1.306,4.049,4.049,0,0,0-1.713,3.378,3.339,3.339,0,0,0,.947,2.492,6.075,6.075,0,0,0,2.36,1.438c.947.335,2.229.694,3.822,1.09a38.541,38.541,0,0,1,4.6,1.391,7.523,7.523,0,0,1,2.971,2.072,5.476,5.476,0,0,1,1.222,3.75,6.364,6.364,0,0,1-1.054,3.57,7.218,7.218,0,0,1-3.235,2.552,13.56,13.56,0,0,1-5.355.946,16.394,16.394,0,0,1-5.511-.91" transform="translate(19246.822 -3661.208)" fill="#fff"/><path d="M1274.875,6926.013a5.033,5.033,0,0,1-1.833,1.019,7.217,7.217,0,0,1-2.276.348,5.742,5.742,0,0,1-4.217-1.474,5.649,5.649,0,0,1-1.474-4.182V6909.97H1261.6v-2.216h3.475V6903.5h2.624v4.254h5.919v2.216H1267.7v11.61a3.709,3.709,0,0,0,.863,2.647,3.31,3.31,0,0,0,2.492.911,4.645,4.645,0,0,0,1.57-.264,3.855,3.855,0,0,0,1.318-.743Z" transform="translate(19088.037 -3678.899)" fill="#fff"/><path d="M1401.675,7072.539a1.99,1.99,0,0,1-.575-1.437,1.941,1.941,0,0,1,.575-1.426,1.879,1.879,0,0,1,1.39-.575,1.945,1.945,0,0,1,1.4.575,1.888,1.888,0,0,1,.587,1.426,1.953,1.953,0,0,1-.587,1.438,1.911,1.911,0,0,1-1.4.588,1.824,1.824,0,0,1-1.39-.588" transform="translate(18965.248 -3824.659)" fill="#fff"/></g><g transform="translate(-112 -5734.914)"><g transform="translate(112 5836.315)"><path d="M301.639,2718.884l-.028-14.318-7.1,11.849h-1.788l-7.1-11.651v14.12H281.8V2697.3h3.306l8.571,14.3,8.415-14.3H305.4l.028,21.584Z" transform="translate(-281.8 -2696.988)" fill="#fff"/><path d="M495.076,2715.96a10.57,10.57,0,0,1-4.158-3.973,10.948,10.948,0,0,1-1.518-5.691,10.811,10.811,0,0,1,1.518-5.69,10.572,10.572,0,0,1,4.158-3.974,13.079,13.079,0,0,1,11.906,0,10.54,10.54,0,0,1,4.158,3.959,11.476,11.476,0,0,1,0,11.409,10.63,10.63,0,0,1-4.158,3.959,13.079,13.079,0,0,1-11.906,0m9.834-3.065a7.007,7.007,0,0,0,2.711-2.711,7.86,7.86,0,0,0,.993-3.9,7.714,7.714,0,0,0-.993-3.9,6.916,6.916,0,0,0-2.711-2.71,7.714,7.714,0,0,0-3.888-.965,7.9,7.9,0,0,0-3.888.965,7.01,7.01,0,0,0-2.71,2.71,7.86,7.86,0,0,0-.993,3.9,7.713,7.713,0,0,0,.993,3.9,6.916,6.916,0,0,0,2.71,2.711,7.712,7.712,0,0,0,3.888.965,7.565,7.565,0,0,0,3.888-.965" transform="translate(-459.939 -2695.185)" fill="#fff"/><path d="M708.234,2718.8l-4.413-6.329c-.184.014-.468.028-.837.028h-4.867v6.287H694.1V2697.2h8.883a12.1,12.1,0,0,1,4.9.922,7.054,7.054,0,0,1,3.193,2.654,7.445,7.445,0,0,1,1.107,4.1,7.345,7.345,0,0,1-1.192,4.2,7.1,7.1,0,0,1-3.406,2.625l4.967,7.1Zm-1.447-17.085a6.169,6.169,0,0,0-3.973-1.107H698.13v8.6h4.683a6.058,6.058,0,0,0,3.973-1.121,4.406,4.406,0,0,0,0-6.372" transform="translate(-635.589 -2696.902)" fill="#fff"/><path d="M849.352,2700.691H842.2V2697.3h18.32v3.392h-7.166v18.192h-4Z" transform="translate(-762.674 -2696.988)" fill="#fff"/><path d="M1006.605,2705.956h3.789v8.6a12.073,12.073,0,0,1-3.888,2.029,15.062,15.062,0,0,1-4.569.71,12.418,12.418,0,0,1-5.96-1.433,10.543,10.543,0,0,1-4.158-3.959,10.926,10.926,0,0,1-1.518-5.7,10.8,10.8,0,0,1,1.518-5.7,10.524,10.524,0,0,1,4.186-3.96,12.516,12.516,0,0,1,6-1.433,13.186,13.186,0,0,1,4.938.894,9.747,9.747,0,0,1,3.732,2.625l-2.526,2.469a8.114,8.114,0,0,0-5.946-2.469,8.4,8.4,0,0,0-4.058.95,7.021,7.021,0,0,0-2.781,2.683,7.73,7.73,0,0,0-1.008,3.945,7.633,7.633,0,0,0,1.008,3.888,7.1,7.1,0,0,0,2.781,2.711,8.2,8.2,0,0,0,4.03.993,8.7,8.7,0,0,0,4.442-1.107v-6.726Z" transform="translate(-889.759 -2695.1)" fill="#fff"/><path d="M1356.7,2705.956h3.789v8.6a12.073,12.073,0,0,1-3.888,2.029,15.062,15.062,0,0,1-4.569.71,12.42,12.42,0,0,1-5.96-1.433,10.54,10.54,0,0,1-4.158-3.959,11.475,11.475,0,0,1,0-11.409,10.521,10.521,0,0,1,4.186-3.96,12.516,12.516,0,0,1,6-1.433,13.185,13.185,0,0,1,4.938.894,9.745,9.745,0,0,1,3.732,2.625l-2.526,2.469a8.113,8.113,0,0,0-5.946-2.469,8.4,8.4,0,0,0-4.058.95,7.019,7.019,0,0,0-2.782,2.683,7.73,7.73,0,0,0-1.008,3.945,7.633,7.633,0,0,0,1.008,3.888,7.1,7.1,0,0,0,2.782,2.711,8.194,8.194,0,0,0,4.03.993,8.706,8.706,0,0,0,4.442-1.107v-6.726Z" transform="translate(-1190.176 -2695.1)" fill="#fff"/><path d="M1546.292,2715.521v3.363H1530.1V2697.3h15.752v3.349H1534.1v5.619h10.431v3.307H1534.1v5.946Z" transform="translate(-1352.957 -2696.988)" fill="#fff"/><path d="M539.827,2945.635a6.224,6.224,0,0,1-2.327-1.276l.752-1.576a6.059,6.059,0,0,0,2.072,1.178,7.693,7.693,0,0,0,2.6.455,4.692,4.692,0,0,0,2.625-.6,1.825,1.825,0,0,0,.866-1.589,1.56,1.56,0,0,0-.468-1.177,3.177,3.177,0,0,0-1.164-.7c-.468-.156-1.121-.341-1.973-.54a20.219,20.219,0,0,1-2.568-.766,4.341,4.341,0,0,1-1.674-1.178,3.117,3.117,0,0,1-.7-2.143,3.661,3.661,0,0,1,.6-2.043,3.97,3.97,0,0,1,1.8-1.448,7.216,7.216,0,0,1,3.008-.539,9.467,9.467,0,0,1,2.455.326,6.45,6.45,0,0,1,2.072.923l-.667,1.617a6.734,6.734,0,0,0-1.9-.851,6.942,6.942,0,0,0-1.972-.3,4.358,4.358,0,0,0-2.569.625,1.908,1.908,0,0,0-.851,1.617,1.521,1.521,0,0,0,.482,1.178,3.5,3.5,0,0,0,1.206.709c.483.169,1.121.341,1.944.539a20.136,20.136,0,0,1,2.569.766,4.255,4.255,0,0,1,1.66,1.163,3.067,3.067,0,0,1,.7,2.115,3.556,3.556,0,0,1-.61,2.03,4.061,4.061,0,0,1-1.831,1.447,7.627,7.627,0,0,1-3.023.54,10.114,10.114,0,0,1-3.108-.512" transform="translate(-501.214 -2898.125)" fill="#fff"/><path d="M680.739,2934.46H675.9v-1.76h11.679v1.76H682.74v12.36h-2Z" transform="translate(-619.974 -2898.983)" fill="#fff"/><path d="M839.851,2946.819l-3.051-4.342c-.383.029-.667.043-.894.043h-3.491v4.3H830.4V2932.7h5.506a6.583,6.583,0,0,1,4.314,1.3,4.442,4.442,0,0,1,1.575,3.6,4.7,4.7,0,0,1-.809,2.781,4.6,4.6,0,0,1-2.3,1.675l3.349,4.74h-2.185Zm-1.064-6.826a3.257,3.257,0,0,0,0-4.711,4.571,4.571,0,0,0-2.923-.824h-3.434v6.358h3.434a4.568,4.568,0,0,0,2.923-.823" transform="translate(-752.55 -2898.983)" fill="#fff"/><path d="M1000.946,2945.074v1.745H990.7V2932.7h9.962v1.76h-7.947v4.342H999.8v1.717h-7.081v4.555Z" transform="translate(-890.099 -2898.983)" fill="#fff"/><path d="M1153.046,2945.074v1.745H1142.8V2932.7h9.962v1.76h-7.947v4.342h7.081v1.717h-7.081v4.555Z" transform="translate(-1020.618 -2898.983)" fill="#fff"/><path d="M1285.339,2934.46H1280.5v-1.76h11.679v1.76h-4.839v12.36h-2Z" transform="translate(-1138.777 -2898.983)" fill="#fff"/><path d="M1168.206,2705.63l1.859-4.328,4.073,9.437h-.043l3.675,8.145h4.044l-9.749-21.584h-3.945l-9.72,21.584h3.846Z" transform="translate(-1034.004 -2696.988)" fill="#fff"/></g><text transform="translate(112 5912.354)" fill="#fff" font-size="12.5" font-family="Montserrat-Medium, Montserrat" font-weight="500"><tspan x="0" y="0">INFINITE BROKER SOLUTIONS</tspan></text></g><path d="M557,6544.6H430v10.675l7.848,10.52v45.493h2.7v-41.814l12.3,16.762,12.9,17.792,1.689-.013,24.909-34.877.084,42.149h2.7l-.024-13.61h.024l-.06-32.373,5.487-7.656V6611.3h2.36v-59h-1.462l-6.386,8.975-.012-9.322H492.77l-26.275,36.579-26.359-36.579h-2.288v9.86l-5.5-7.487v-7.381H554.784v70.605H432.36v-51.279L430,6562.8v56.887l126.965.036Zm-116.445,11.992,25.209,34.759h1.474l25.125-34.89.012,8.578-25.748,35.968-14.8-20.152L440.555,6565.2Z" transform="translate(-397 -6544.601)" fill="#fff"/></svg>